<?xml version="1.0" encoding="utf-8"?>
<!-- Generator: Adobe Illustrator 17.0.0, SVG Export Plug-In . SVG Version: 6.00 Build 0)  -->
<!DOCTYPE svg PUBLIC "-//W3C//DTD SVG 1.1//EN" "http://www.w3.org/Graphics/SVG/1.1/DTD/svg11.dtd">
<svg version="1.1" id="레이어_1" focusable="false"
	 xmlns="http://www.w3.org/2000/svg" xmlns:xlink="http://www.w3.org/1999/xlink" x="0px" y="0px" width="841.89px"
	 height="595.28px" viewBox="0 0 841.89 595.28" enable-background="new 0 0 841.89 595.28" xml:space="preserve">
<path fill="#FFFFFF" stroke="#000000" stroke-miterlimit="10" d="M412.074,172.375l-214.359,176.55v190.548
	c0,10.274,8.329,18.602,18.602,18.602l130.287-0.337c10.238-0.051,18.51-8.365,18.509-18.602V427.858
	c0-10.274,8.329-18.603,18.603-18.603h74.41c10.274,0,18.603,8.329,18.603,18.603v111.197c-0.032,10.274,8.27,18.628,18.544,18.66
	c0.019,0,0.039,0,0.058,0l130.241,0.36c10.274,0,18.602-8.329,18.602-18.602V348.797L429.863,172.375
	C424.671,168.191,417.265,168.191,412.074,172.375L412.074,172.375z M750.674,292.373l-97.198-80.119V51.215
	c0-7.705-6.246-13.952-13.952-13.952h-65.109c-7.705,0-13.952,6.246-13.952,13.952v84.42L456.371,49.994
	c-20.601-16.953-50.321-16.953-70.922,0L91.146,292.373c-5.939,4.909-6.774,13.703-1.865,19.643
	c0.002,0.002,0.003,0.004,0.005,0.006l29.648,36.042c4.894,5.951,13.687,6.808,19.638,1.914c0.008-0.006,0.015-0.012,0.023-0.019
	l273.48-225.253c5.191-4.184,12.597-4.184,17.789,0l273.49,225.254c5.936,4.913,14.731,4.083,19.644-1.854
	c0.002-0.002,0.003-0.004,0.005-0.006l29.648-36.042c4.893-5.953,4.033-14.745-1.92-19.637
	C750.712,292.404,750.693,292.389,750.674,292.373L750.674,292.373z"/>
</svg>
