<?xml version="1.0" encoding="utf-8"?>
<!-- Generator: Adobe Illustrator 17.0.0, SVG Export Plug-In . SVG Version: 6.00 Build 0)  -->
<!DOCTYPE svg PUBLIC "-//W3C//DTD SVG 1.1//EN" "http://www.w3.org/Graphics/SVG/1.1/DTD/svg11.dtd">
<svg version="1.1" id="레이어_1" focusable="false"
	 xmlns="http://www.w3.org/2000/svg" xmlns:xlink="http://www.w3.org/1999/xlink" x="0px" y="0px" width="841.89px"
	 height="595.28px" viewBox="0 0 841.89 595.28" enable-background="new 0 0 841.89 595.28" xml:space="preserve">
<path fill="#CED6E0" d="M662.778,520.87H179.112c-30.822,0-55.807-24.985-55.807-55.807V130.217
	c0-30.822,24.985-55.807,55.807-55.807h483.665c30.822,0,55.807,24.985,55.807,55.807v334.845
	C718.585,495.885,693.6,520.87,662.778,520.87z M253.522,139.519c-35.959,0-65.109,29.15-65.109,65.109s29.15,65.109,65.109,65.109
	s65.109-29.15,65.109-65.109S289.481,139.519,253.522,139.519z M197.715,446.46h446.46V316.243l-101.75-101.75
	c-5.448-5.448-14.282-5.448-19.731,0L365.138,372.05l-64.545-64.545c-5.448-5.448-14.282-5.448-19.731,0l-83.146,83.147V446.46z"/>
</svg>
