<?xml version="1.0" encoding="utf-8"?>
<!-- Generator: Adobe Illustrator 17.0.0, SVG Export Plug-In . SVG Version: 6.00 Build 0)  -->
<!DOCTYPE svg PUBLIC "-//W3C//DTD SVG 1.1//EN" "http://www.w3.org/Graphics/SVG/1.1/DTD/svg11.dtd">
<svg version="1.1" id="레이어_1" focusable="false"
	 xmlns="http://www.w3.org/2000/svg" xmlns:xlink="http://www.w3.org/1999/xlink" x="0px" y="0px" width="841.89px"
	 height="595.28px" viewBox="0 0 841.89 595.28" enable-background="new 0 0 841.89 595.28" xml:space="preserve">
<path fill="#D63031" d="M696.96,28.601L576.043,0.698c-13.138-3.023-26.625,3.837-31.973,16.161l-55.808,130.217
	c-4.883,11.394-1.628,24.765,8.022,32.554l70.457,57.668c-41.856,89.176-114.987,163.353-206.023,206.023l-57.668-70.457
	c-7.906-9.65-21.16-12.905-32.554-8.022L140.28,420.649c-12.44,5.464-19.3,18.951-16.277,32.089l27.904,120.916
	c2.907,12.557,14.068,21.625,27.206,21.625c297.756,0,539.473-241.251,539.473-539.473C718.585,42.786,709.633,31.508,696.96,28.601
	z"/>
</svg>
