<?xml version="1.0" encoding="utf-8"?>
<!-- Generator: Adobe Illustrator 17.0.0, SVG Export Plug-In . SVG Version: 6.00 Build 0)  -->
<!DOCTYPE svg PUBLIC "-//W3C//DTD SVG 1.1//EN" "http://www.w3.org/Graphics/SVG/1.1/DTD/svg11.dtd">
<svg version="1.1" id="레이어_1" focusable="false"
	 xmlns="http://www.w3.org/2000/svg" xmlns:xlink="http://www.w3.org/1999/xlink" x="0px" y="0px" width="841.89px"
	 height="595.28px" viewBox="0 0 841.89 595.28" enable-background="new 0 0 841.89 595.28" xml:space="preserve">
<path fill="#CED6E0" d="M741.838,223.23c7.674,0,13.952-6.278,13.952-13.952v-46.506c0-7.674-6.278-13.952-13.952-13.952h-55.807
	l21.625-93.71c1.977-8.72-4.651-17.091-13.603-17.091h-53.598c-6.627,0-12.324,4.651-13.603,11.045l-16.742,99.756H482.333
	l-22.904-99.988c-1.511-6.395-7.092-10.813-13.603-10.813h-51.157c-6.511,0-12.092,4.418-13.603,10.813l-23.253,99.988H231.432
	l-20.346-99.64c-1.279-6.511-7.092-11.161-13.719-11.161h-48.948c-8.952,0-15.58,8.255-13.603,16.975l21.044,93.826h-55.808
	c-7.674,0-13.952,6.278-13.952,13.952v46.506c0,7.674,6.278,13.952,13.952,13.952h72.433l8.371,37.205h-80.805
	c-7.674,0-13.952,6.278-13.952,13.952v46.506c0,7.674,6.278,13.952,13.952,13.952h97.547l47.553,212.301
	c1.395,6.395,7.092,10.929,13.603,10.929h66.039c6.511,0,12.092-4.534,13.603-10.813l49.18-212.417h64.062l49.297,212.417
	c1.511,6.278,7.092,10.813,13.603,10.813h66.039c6.511,0,12.092-4.534,13.603-10.813l48.948-212.417h98.71
	c7.674,0,13.952-6.278,13.952-13.952v-46.506c0-7.674-6.278-13.952-13.952-13.952h-81.502l8.604-37.205H741.838z M299.796,397.628
	c-7.208,29.997-7.906,54.877-8.487,54.877h-1.279c0,0-1.977-25.578-7.906-54.877l-12.789-62.783h45.111L299.796,397.628z
	 M331.769,260.435h-77.665l-7.557-37.205h93.943L331.769,260.435z M404.9,260.435l2.325-9.999
	c2.209-9.301,4.069-18.602,5.581-27.206h13.719c1.511,8.604,3.372,17.905,5.581,27.206l2.325,9.999H404.9z M557.092,397.628
	c-5.93,29.299-7.906,54.877-7.906,54.877h-1.279c-0.698,0-1.279-24.881-8.487-54.877l-14.417-62.783h45.46L557.092,397.628z
	 M586.391,260.435h-78.363l-8.487-37.205h94.873L586.391,260.435z"/>
</svg>
